# xmcd
#
# Track frame offsets: 
#        150
#        23950
#        45763
#        67957
#        98141
#        101590
#        104224
#        128694
#        141745
#        164288
#        182126
#
# Disc length: 2772 seconds
#
# Revision: 0
# Processed by: cddbd v1.5.2PL0 Copyright (c) Steve Scherf et al.
# Submitted via: ExactAudioCopy v0.95b4
#
DISCID=970ad20b
DTITLE=Eric Johnson - 1984-07-31 - Austin City Limits - Austin TX - Di
DTITLE=sc 2
DYEAR=1984
DGENRE=Rock
TTITLE0=Cliffs Of Dover
TTITLE1=Trail Of Tears
TTITLE2=Manhattan
TTITLE3=Bristol Shore
TTITLE4=Gimme Some Lovin'
TTITLE5=Spanish Castle Magic (false start)
TTITLE6=Spanish Castle Magic
TTITLE7=Intermission
TTITLE8=Soulful Terrain
TTITLE9=Emerald Eyes
TTITLE10=Cliffs Of Dover
EXTD=
EXTT0=
EXTT1=
EXTT2=
EXTT3=
EXTT4=
EXTT5=
EXTT6=
EXTT7=
EXTT8=
EXTT9=
EXTT10=
PLAYORDER=
